<?xml version="1.0" encoding="UTF-8" standalone="no"?>
<!-- Created with Inkscape (http://www.inkscape.org/) -->

<svg
   width="210mm"
   height="210mm"
   viewBox="0 0 210 210"
   version="1.1"
   id="svg1"
   inkscape:version="1.4.2 (f4327f4, 2025-05-13)"
   sodipodi:docname="favicon.svg"
   xmlns:inkscape="http://www.inkscape.org/namespaces/inkscape"
   xmlns:sodipodi="http://sodipodi.sourceforge.net/DTD/sodipodi-0.dtd"
   xmlns="http://www.w3.org/2000/svg"
   xmlns:svg="http://www.w3.org/2000/svg">
  <sodipodi:namedview
     id="namedview1"
     pagecolor="#ffffff"
     bordercolor="#000000"
     borderopacity="0.25"
     inkscape:showpageshadow="2"
     inkscape:pageopacity="0.0"
     inkscape:pagecheckerboard="0"
     inkscape:deskcolor="#d1d1d1"
     inkscape:document-units="mm"
     inkscape:zoom="0.35947751"
     inkscape:cx="-386.67231"
     inkscape:cy="393.62685"
     inkscape:window-width="1920"
     inkscape:window-height="1009"
     inkscape:window-x="-8"
     inkscape:window-y="-8"
     inkscape:window-maximized="1"
     inkscape:current-layer="layer1" />
  <defs
     id="defs1" />
  <g
     inkscape:label="Warstwa 1"
     inkscape:groupmode="layer"
     id="layer1">
    <rect
       style="fill:#14213d;fill-opacity:1;stroke:#fff305;stroke-width:0"
       id="rect1-2"
       width="210"
       height="210"
       x="-1.3021256e-06"
       y="6.2470093e-07"
       ry="49.497475" />
    <g
       id="g3-2"
       transform="matrix(2.0021266,0,0,2.0021266,-117.52562,-127.70408)">
      <path
         style="fill:#fff205;fill-opacity:1;stroke:#fff305;stroke-width:2.99681;stroke-linecap:square;stroke-linejoin:miter;stroke-dasharray:none"
         d="m 100.28174,100.82799 20.82315,7.1153 -25.378205,12.4518 32.861515,11.26591 -24.07675,-12.74827 21.79922,-11.26591 z"
         id="path2-6" />
    </g>
    <path
       style="font-size:6.35px;line-height:0.1;font-family:'Arial Nova';-inkscape-font-specification:'Arial Nova';white-space:pre;inline-size:12.4778;fill:#ffffff;stroke:#fff305;stroke-width:0"
       d="m 101.15532,104.50184 -0.22944,0.47439 q -0.22944,-0.093 -0.43098,-0.22014 -0.19844,-0.12402 -0.545706,-0.41238 -0.480591,0.25425 -1.054199,0.25425 -0.623218,0 -1.119311,-0.29455 -0.496094,-0.29456 -0.778247,-0.82786 -0.282154,-0.5333 -0.282154,-1.22163 0,-0.70383 0.279053,-1.23714 0.279053,-0.5364 0.775146,-0.82785 0.496094,-0.291457 1.125513,-0.291457 0.617017,0 1.110005,0.291457 0.4961,0.29145 0.77825,0.82475 0.28216,0.5333 0.28216,1.23404 0,0.57981 -0.18294,1.03249 -0.17983,0.44959 -0.5085,0.75034 0.25115,0.18294 0.41238,0.28526 0.16123,0.10232 0.36897,0.18603 z m -2.260325,-0.75034 0.164331,-0.48989 q 0.235645,0.0589 0.42478,0.15503 0.189136,0.093 0.430982,0.29145 0.251152,-0.23254 0.387572,-0.59531 0.13953,-0.36587 0.13953,-0.85266 0,-0.56741 -0.19534,-0.98289 -0.19534,-0.41858 -0.548803,-0.64182 -0.350366,-0.22324 -0.809253,-0.22324 -0.455786,0 -0.809253,0.22014 -0.350366,0.22014 -0.545703,0.64182 -0.195337,0.41858 -0.195337,0.99219 0,0.55501 0.198437,0.96738 0.198438,0.40928 0.548804,0.62942 0.353467,0.22014 0.806152,0.22014 0.331763,0 0.57981,-0.0961 -0.139526,-0.0899 -0.275952,-0.14263 -0.136426,-0.0558 -0.300757,-0.093 z"
       id="text1-9"
       transform="matrix(34.186627,0,0,32.412218,-3277.2644,-3215.2056)"
       aria-label="Q" />
  </g>
</svg>
